<?xml version="1.0" standalone="no"?>
<!DOCTYPE svg PUBLIC "-//W3C//DTD SVG 20010904//EN"
 "http://www.w3.org/TR/2001/REC-SVG-20010904/DTD/svg10.dtd">
<svg version="1.0" xmlns="http://www.w3.org/2000/svg"
 width="534.000000pt" height="141.000000pt" viewBox="0 0 534.000000 141.000000"
 preserveAspectRatio="xMidYMid meet">

<g transform="translate(0.000000,141.000000) scale(0.100000,-0.100000)"
fill="#000000" stroke="none">
<path d="M815 1374 c-165 -6 -338 -15 -385 -19 l-86 -8 -32 -126 c-33 -128
-38 -189 -26 -309 6 -57 9 -62 37 -72 57 -19 57 -19 57 101 0 96 2 110 15 105
9 -3 40 -13 71 -22 53 -15 69 -14 452 26 218 23 398 43 398 43 4 4 35 260 32
262 -2 2 -178 -6 -393 -17 -324 -16 -399 -17 -444 -7 -30 7 -49 15 -43 17 6 2
28 -1 48 -7 41 -11 764 17 764 30 0 10 -57 19 -114 17 -28 0 -186 -7 -351 -14z
m481 -131 c-12 -128 -3 -119 -117 -132 -155 -17 -150 -19 -143 32 3 23 8 69
12 102 l7 60 65 6 c36 3 91 6 124 7 l59 2 -7 -77z m-741 40 c-3 -16 -12 -79
-20 -142 -14 -104 -25 -152 -25 -106 0 47 34 275 42 275 4 0 5 -12 3 -27z"/>
<path d="M1155 1302 c-75 -3 -95 -15 -95 -58 0 -29 30 -39 75 -24 19 6 45 10
59 8 34 -4 76 21 76 46 0 17 2 18 10 6 8 -12 10 -12 10 5 0 22 -4 22 -135 17z"/>
<path d="M3917 1073 c-33 -4 -36 -6 -22 -19 10 -10 15 -35 15 -69 l0 -54 -53
6 c-47 5 -56 2 -85 -22 -60 -51 -67 -176 -13 -237 33 -38 97 -44 130 -14 19
17 21 17 21 3 0 -14 10 -17 55 -17 l55 0 -20 20 c-19 19 -20 33 -20 215 0 150
-3 195 -12 193 -7 -1 -30 -3 -51 -5z m-26 -153 c17 -10 19 -22 19 -113 0 -106
-7 -128 -43 -140 -26 -9 -54 24 -62 73 -10 61 3 148 26 171 22 22 32 23 60 9z"/>
<path d="M1115 1061 c-48 -6 -50 -7 -53 -40 l-3 -34 -47 6 c-26 3 -91 12 -145
19 -97 12 -100 12 -180 -15 -46 -15 -129 -32 -189 -38 l-108 -12 0 -63 c0 -34
-4 -65 -9 -68 -5 -4 -30 3 -55 14 -42 18 -46 22 -46 55 0 25 -4 35 -15 35 -22
0 -35 -41 -35 -108 l0 -57 -100 -59 -100 -58 0 -117 c1 -73 5 -124 13 -138 14
-26 504 -373 526 -373 8 0 167 32 355 70 294 61 344 74 362 94 19 22 84 248
84 293 0 12 -29 34 -89 66 l-88 49 4 146 c2 81 8 183 13 226 6 44 10 87 10 98
0 19 -9 20 -105 9z m65 -295 l0 -195 78 -42 c105 -58 101 -53 90 -98 l-10 -38
-211 -41 c-117 -23 -290 -56 -386 -74 l-173 -33 -57 32 c-50 28 -56 35 -59 67
-2 20 0 36 4 36 4 0 28 -12 52 -26 25 -15 57 -27 71 -26 36 1 752 130 759 137
9 9 -33 5 -114 -10 -44 -8 -207 -37 -364 -65 l-285 -51 -48 22 c-28 13 -43 25
-36 30 7 4 -10 18 -40 34 l-51 28 0 214 c0 117 3 213 8 214 4 0 80 8 169 17
162 17 162 17 165 -3 3 -17 9 -20 53 -17 100 6 124 12 127 35 3 20 12 23 103
33 55 6 112 12 128 13 l27 1 0 -194z m-1075 -192 c41 -23 43 -27 32 -47 -7
-12 -13 -23 -13 -25 -4 -8 -74 42 -74 53 0 7 -3 20 -6 29 -9 23 11 20 61 -10z
m335 -219 c0 -33 -4 -45 -15 -45 -11 0 -15 12 -15 45 0 33 4 45 15 45 11 0 15
-12 15 -45z m856 -32 c-2 -10 -7 -37 -11 -60 -4 -23 -12 -46 -18 -51 -7 -5
-149 -37 -317 -71 -168 -34 -313 -65 -324 -68 -17 -5 -18 0 -14 61 2 36 6 67
8 69 7 5 640 135 663 136 13 1 17 -4 13 -16z"/>
<path d="M1030 921 l-55 -6 -3 -167 -2 -168 26 0 c15 0 56 5 90 11 l62 11 7
71 c3 40 5 113 3 162 l-3 90 -35 1 c-19 1 -60 -2 -90 -5z m102 -163 c-4 -4
-38 -12 -75 -16 -64 -8 -67 -8 -67 13 0 17 9 25 40 34 l40 12 0 54 c0 30 5 55
10 55 6 0 10 -23 10 -51 0 -61 23 -64 28 -3 5 74 17 69 20 -10 2 -44 -1 -83
-6 -88z"/>
<path d="M880 850 c17 -7 2 -8 -50 -5 -53 3 -68 2 -50 -5 18 -7 3 -8 -50 -5
-53 3 -68 2 -50 -5 18 -7 3 -8 -50 -5 -53 3 -68 2 -50 -5 18 -7 3 -8 -50 -5
-54 3 -68 2 -50 -5 22 -8 21 -9 -12 -7 l-38 3 0 -116 0 -115 43 -2 c35 -1 38
0 17 8 -18 6 -8 7 35 4 44 -3 55 -2 40 5 -15 7 -5 9 35 5 41 -4 50 -2 35 5
-16 8 -11 9 20 5 22 -2 48 -5 58 -5 13 0 17 -8 17 -35 0 -41 5 -42 107 -24
l63 11 0 35 c0 31 -2 35 -22 30 -54 -13 -135 -17 -163 -8 -16 5 -22 10 -12 10
12 1 17 9 17 30 0 28 -2 29 -32 25 -112 -17 -248 -29 -248 -22 0 4 3 8 8 8 4
0 61 7 127 15 65 8 125 15 132 15 8 0 13 23 16 73 3 63 3 60 5 -28 2 -109 9
-126 51 -124 l26 1 -25 9 c-17 6 -7 7 35 4 43 -3 54 -2 40 5 -16 7 -10 9 25 7
l45 -2 0 110 0 110 -35 2 c-32 2 -33 1 -10 -7z m37 -157 c-2 -32 -3 -8 -3 52
0 61 1 87 3 58 2 -29 2 -78 0 -110z m-95 48 c-10 -14 -31 -27 -46 -29 -31 -4
-25 -22 8 -22 33 0 69 44 77 93 l6 42 2 -38 c2 -72 -51 -126 -105 -107 -17 7
-21 18 -23 59 l-1 50 47 14 48 14 3 -25 c2 -14 -5 -37 -16 -51z"/>
<path d="M1103 563 c9 -2 23 -2 30 0 6 3 -1 5 -18 5 -16 0 -22 -2 -12 -5z"/>
<path d="M1033 553 c9 -2 23 -2 30 0 6 3 -1 5 -18 5 -16 0 -22 -2 -12 -5z"/>
<path d="M963 543 c9 -2 23 -2 30 0 6 3 -1 5 -18 5 -16 0 -22 -2 -12 -5z"/>
<path d="M903 533 c9 -2 23 -2 30 0 6 3 -1 5 -18 5 -16 0 -22 -2 -12 -5z"/>
<path d="M833 523 c9 -2 23 -2 30 0 6 3 -1 5 -18 5 -16 0 -22 -2 -12 -5z"/>
<path d="M773 513 c9 -2 23 -2 30 0 6 3 -1 5 -18 5 -16 0 -22 -2 -12 -5z"/>
<path d="M703 503 c9 -2 23 -2 30 0 6 3 -1 5 -18 5 -16 0 -22 -2 -12 -5z"/>
<path d="M643 493 c9 -2 23 -2 30 0 6 3 -1 5 -18 5 -16 0 -22 -2 -12 -5z"/>
<path d="M573 483 c9 -2 23 -2 30 0 6 3 -1 5 -18 5 -16 0 -22 -2 -12 -5z"/>
<path d="M513 473 c9 -2 23 -2 30 0 6 3 -1 5 -18 5 -16 0 -22 -2 -12 -5z"/>
<path d="M443 463 c9 -2 23 -2 30 0 6 3 -1 5 -18 5 -16 0 -22 -2 -12 -5z"/>
<path d="M941 256 c-302 -61 -305 -62 -312 -89 -6 -21 -4 -27 9 -27 10 0 145
26 301 57 225 45 287 54 302 45 21 -13 24 -10 33 41 6 32 4 37 -11 36 -10 -1
-155 -29 -322 -63z"/>
<path d="M1801 1038 c-48 -13 -78 -35 -102 -75 -63 -101 -33 -249 60 -297 14
-8 49 -17 76 -20 l50 -6 -41 19 c-53 25 -77 73 -82 168 -7 130 36 208 113 206
57 -2 93 -37 108 -108 3 -11 5 9 6 45 0 41 -3 60 -8 51 -7 -11 -16 -10 -53 8
-48 23 -74 25 -127 9z"/>
<path d="M4720 1043 c35 -13 40 -35 40 -188 0 -153 -5 -175 -40 -188 -8 -3 30
-5 85 -5 55 0 91 3 80 5 -38 10 -45 24 -45 89 l0 64 40 0 c22 0 55 6 74 14
102 43 101 177 -2 206 -37 10 -260 13 -232 3z m204 -25 c22 -36 28 -83 16
-127 -11 -43 -33 -61 -74 -61 l-26 0 0 98 c0 54 3 102 7 105 15 16 63 6 77
-15z"/>
<path d="M5078 1040 c22 -9 22 -11 22 -209 0 -215 -5 -243 -49 -261 -23 -9
-20 -10 18 -6 60 6 101 47 112 113 4 26 8 117 8 201 1 149 2 153 24 162 15 6
-4 9 -68 9 -64 0 -83 -3 -67 -9z"/>
<path d="M2723 1013 c-38 -5 -36 8 -33 -198 1 -83 6 -127 15 -141 28 -43 102
-38 126 8 12 23 12 23 -9 4 -12 -10 -28 -16 -37 -13 -13 5 -15 33 -15 177 0
93 -3 169 -7 168 -5 0 -23 -3 -40 -5z"/>
<path d="M4180 870 c0 -80 4 -130 10 -130 6 0 10 7 10 15 0 19 9 19 34 0 52
-39 136 9 136 78 0 71 -79 119 -135 83 -13 -9 -27 -16 -30 -16 -3 0 -5 23 -5
50 0 28 -4 50 -10 50 -6 0 -10 -50 -10 -130z m145 15 c30 -30 32 -64 4 -99
-42 -53 -123 -21 -123 49 0 69 71 99 119 50z"/>
<path d="M2105 930 c-33 -13 -48 -37 -41 -65 5 -20 13 -25 36 -25 23 0 31 5
36 26 4 14 2 30 -5 37 -18 18 -13 27 19 27 33 0 50 -22 50 -68 0 -35 -12 -47
-70 -67 -24 -9 -52 -23 -62 -32 -23 -21 -23 -75 0 -96 26 -24 81 -21 109 5 18
17 23 18 23 6 0 -27 68 -39 100 -18 12 8 11 10 -7 10 -23 0 -23 2 -23 114 0
112 -1 115 -26 135 -28 22 -99 28 -139 11z m93 -176 c-3 -64 -23 -88 -55 -68
-31 19 -28 61 7 94 18 17 36 30 42 30 5 0 8 -25 6 -56z"/>
<path d="M2370 931 c-32 -4 -40 -8 -27 -13 15 -7 17 -25 17 -177 0 -151 -2
-171 -17 -180 -13 -8 5 -10 67 -10 70 0 80 2 57 11 l-28 10 1 161 c1 216 2
207 -12 205 -7 0 -33 -4 -58 -7z"/>
<path d="M2476 927 c-16 -12 -15 -13 10 -12 20 0 32 -7 41 -25 17 -34 16 -153
-1 -195 -13 -30 -20 -35 -48 -36 -31 0 -31 -1 -9 -10 36 -14 96 6 122 43 41
57 38 180 -6 224 -27 27 -80 32 -109 11z"/>
<path d="M2890 931 c-30 -4 -39 -8 -28 -13 13 -6 17 -26 20 -122 4 -133 12
-151 78 -151 27 0 46 8 64 24 26 24 26 24 26 3 0 -20 5 -22 57 -22 51 0 55 1
37 14 -17 13 -19 29 -22 146 -3 112 -6 131 -19 126 -8 -3 -30 -6 -50 -6 -31 0
-33 -1 -19 -16 12 -12 16 -37 16 -110 0 -88 -2 -97 -25 -120 -20 -20 -28 -23
-45 -14 -18 10 -20 21 -20 140 0 98 -3 130 -12 128 -7 0 -33 -4 -58 -7z"/>
<path d="M3230 931 c-32 -4 -40 -8 -27 -13 15 -6 17 -22 17 -127 0 -104 -2
-121 -17 -130 -13 -8 4 -10 67 -11 75 0 82 2 60 13 -24 12 -25 17 -28 110 -3
100 4 129 37 146 16 9 18 6 17 -27 -1 -35 1 -37 29 -37 25 0 30 4 33 28 7 56
-42 75 -92 36 l-26 -20 0 20 c0 12 -6 20 -12 19 -7 0 -33 -4 -58 -7z"/>
<path d="M3512 926 c-43 -23 -62 -65 -62 -138 0 -57 4 -71 26 -97 55 -66 154
-60 190 11 l17 33 -25 -22 c-28 -27 -79 -30 -102 -8 -18 19 -40 91 -31 105 3
6 40 10 82 10 l76 0 -6 38 c-9 51 -46 82 -100 82 -23 -1 -52 -6 -65 -14z m86
-8 c6 -7 12 -29 14 -48 3 -35 3 -35 -39 -38 -41 -3 -43 -2 -43 25 0 53 43 91
68 61z"/>
<path d="M4390 924 c0 -4 18 -47 40 -96 39 -87 40 -91 25 -115 -14 -21 -22
-24 -47 -19 -21 4 -28 2 -25 -7 2 -6 19 -12 38 -12 33 0 35 2 91 115 56 114
66 140 50 140 -5 0 -25 -37 -45 -82 l-35 -83 -38 83 c-20 45 -41 82 -45 82 -5
0 -9 -3 -9 -6z"/>
<path d="M1980 765 c0 -40 -26 -80 -62 -98 -18 -9 -27 -17 -20 -17 8 0 27 8
43 17 26 16 31 16 39 3 7 -10 10 6 10 53 0 37 -2 67 -5 67 -3 0 -5 -11 -5 -25z"/>
<path d="M1560 440 l0 -30 1880 0 1880 0 0 30 0 30 -1880 0 -1880 0 0 -30z"/>
</g>
</svg>
